<svg class="ldi-90j9ln" width="200px"  height="200px"  xmlns="http://www.w3.org/2000/svg" xmlns:xlink="http://www.w3.org/1999/xlink" viewBox="0 0 100 100" preserveAspectRatio="xMidYMid" style="background: none;"><!--?xml version="1.0" encoding="utf-8"?--><!--Generator: Adobe Illustrator 21.0.0, SVG Export Plug-In . SVG Version: 6.00 Build 0)--><svg version="1.1" id="圖層_1" xmlns="http://www.w3.org/2000/svg" xmlns:xlink="http://www.w3.org/1999/xlink" x="0px" y="0px" viewBox="0 0 100 100" style="transform-origin: 50px 50px 0px;" xml:space="preserve"><g style="transform-origin: 50px 50px 0px;"><g style="transform-origin: 50px 50px 0px; transform: scale(1);"><g style="transform-origin: 50px 50px 0px;"><g><style type="text/css" class="ld ld-breath" style="transform-origin: 50px 50px 0px; animation-duration: 1s; animation-delay: -1s; animation-direction: normal;">.st0{fill:#D1D1D1;} .st1{fill:#454545;} .st2{fill:#464646;} .st3{fill:#FFFFFF;}</style><g class="ld ld-breath" style="transform-origin: 50px 50px 0px; animation-duration: 1s; animation-delay: -0.916667s; animation-direction: normal;"><path class="st0" d="M82.799,60.465c0.053-3.556,0.049-6.503-0.013-9.272c-0.043-2.004-1.434-3.716-2.873-4.477 c0.117-0.105,0.234-0.213,0.349-0.323c1.653-1.579,2.506-3.345,2.536-5.248c0.056-3.393,0.052-6.43-0.012-9.284 c-0.048-2.117-1.6-3.909-3.119-4.594c0.228-0.205,0.452-0.419,0.672-0.644c3.248-3.317,3.307-7.67,0.154-11.089 c-0.29-0.315-0.608-0.617-1.006-0.953c-2.346-1.981-4.995-3.059-7.04-3.776c-4.405-1.545-9.234-2.493-15.2-2.984l-3.745-0.309 C53.398,7.504,53.292,7.5,53.187,7.5h-6.343c-0.141,0-0.281,0.008-0.422,0.023c-0.166,0.018-0.332,0.039-0.498,0.06 c-0.262,0.033-0.508,0.064-0.699,0.074c-5.859,0.312-10.911,1.111-15.444,2.442c-2.972,0.873-6.384,2.016-9.27,4.548 c-1.297,1.136-2.309,2.551-2.848,3.981c-1.173,3.102-0.168,6.297,2.688,8.592c-0.051,0.023-0.101,0.046-0.152,0.071 c-1.888,0.911-3.011,2.733-3.004,4.872c0.002,0.72,0.012,1.44,0.021,2.16c0.023,1.8,0.045,3.501-0.039,5.186 c-0.142,2.858,0.834,5.263,2.906,7.171c-0.008,0.005-0.017,0.009-0.025,0.013c-1.793,0.927-2.862,2.711-2.858,4.774l0.003,1.447 c0.005,2.262,0.01,4.602-0.008,6.894c-0.018,2.175,0.76,4.098,2.248,5.56l0.076,0.074c0.181,0.178,0.373,0.368,0.58,0.561 c-1.036,0.527-2.924,1.916-2.905,5.032c0.004,0.563,0.01,1.126,0.015,1.689c0.021,2.021,0.04,3.93-0.028,5.848 c-0.071,1.998,0.465,4.874,3.422,7.229c2.177,1.733,4.595,2.706,6.225,3.287c4.485,1.6,9.336,2.551,15.726,3.084 c0.908,0.075,1.815,0.146,2.724,0.216l1.268,0.099c0.1,0.008,0.2,0.012,0.301,0.012h6.343c0.242,0,0.484-0.023,0.721-0.069 c0.101-0.019,0.201-0.041,0.302-0.063l0.075-0.016c0.882-0.082,1.765-0.155,2.647-0.228c1.97-0.163,4.007-0.331,6.043-0.599 c4.973-0.652,8.905-1.713,12.372-3.337c1.722-0.807,3.179-1.857,4.64-2.951c1.772-1.324,2.803-3.36,2.827-5.588 c0.025-2.457,0.021-4.943,0.017-7.347l-0.003-1.614c-0.008-2.026-1.122-3.804-2.93-4.701c0.012-0.008,0.024-0.017,0.035-0.026 C81.723,64.646,82.766,62.642,82.799,60.465z" fill="#93dbe9" style="fill: rgb(147, 219, 233);"></path></g><g class="ld ld-breath" style="transform-origin: 50px 50px 0px; animation-duration: 1s; animation-delay: -0.833333s; animation-direction: normal;"><path class="st1" d="M21.251,19.986c0.347-0.918,1.04-1.797,1.788-2.452c2.242-1.966,5.015-2.928,7.823-3.752 c4.753-1.396,9.632-2.03,14.567-2.292c0.473-0.025,0.943-0.099,1.415-0.152c2.115,0,4.229,0,6.343,0 c1.249,0.103,2.5,0.207,3.749,0.309c4.851,0.399,9.633,1.163,14.242,2.78c2.095,0.735,4.115,1.635,5.835,3.087 c0.23,0.195,0.455,0.399,0.658,0.62c1.778,1.928,1.766,3.928-0.072,5.805c-1.698,1.735-3.864,2.7-6.091,3.515 c-4.206,1.538-8.581,2.307-13.02,2.759c-4.439,0.452-8.887,0.569-13.342,0.287c-6.197-0.393-12.325-1.191-18.088-3.662 c-1.482-0.635-2.894-1.528-4.178-2.511C21.504,23.274,20.565,21.799,21.251,19.986z M78.13,69.395 c-0.572-0.252-1.099-0.151-1.624,0.228c-0.831,0.599-1.663,1.223-2.573,1.68c-2.508,1.259-5.206,1.974-7.934,2.578 c-6.132,1.358-12.351,1.66-18.603,1.49c-5.137-0.14-10.247-0.556-15.249-1.81c-3.036-0.761-6.001-1.721-8.449-3.8 c-0.55-0.467-1.134-0.663-1.804-0.365c-0.686,0.307-0.87,0.898-0.865,1.614c0.017,2.566,0.076,5.136-0.015,7.699 c-0.063,1.767,0.662,3.044,1.977,4.091c1.535,1.223,3.294,2.023,5.124,2.675c4.772,1.702,9.732,2.455,14.755,2.874 c1.324,0.11,2.65,0.209,3.974,0.313c2.115,0,4.229,0,6.343,0c0.219-0.042,0.438-0.102,0.66-0.123 c2.878-0.269,5.768-0.442,8.631-0.818c3.871-0.507,7.688-1.342,11.243-3.008c1.414-0.663,2.713-1.608,3.972-2.55 c0.797-0.595,1.275-1.52,1.287-2.553c0.031-2.969,0.017-5.938,0.013-8.907C78.99,70.09,78.679,69.638,78.13,69.395z M78.093,50.097 c-0.4-0.177-1.15-0.127-1.459,0.149c-1.665,1.482-3.672,2.261-5.719,2.951c-5.184,1.751-10.549,2.555-15.991,2.774 c-7.403,0.297-14.789,0.089-22.056-1.574c-3.397-0.777-6.7-1.807-9.419-4.155c-0.475-0.411-1.071-0.428-1.633-0.138 c-0.539,0.279-0.783,0.747-0.782,1.358c0.005,2.792,0.017,5.586-0.006,8.378c-0.009,1.095,0.336,2.041,1.101,2.793 c0.587,0.578,1.2,1.197,1.922,1.557c1.769,0.881,3.554,1.79,5.429,2.39c6.676,2.135,13.589,2.652,22.578,2.777 c2.195-0.199,6.411-0.469,10.596-0.99c3.818-0.476,7.585-1.335,11.088-2.994c1.39-0.658,2.67-1.581,3.915-2.499 c0.78-0.575,1.288-1.467,1.303-2.466c0.046-3.043,0.056-6.088-0.013-9.131C78.94,50.86,78.488,50.272,78.093,50.097z M23.761,44.692 c2.412,1.579,5.099,2.478,7.855,3.19c6.031,1.556,12.188,2.039,19.796,2.119c1.563-0.097,4.532-0.212,7.486-0.485 c4.566-0.423,9.066-1.229,13.383-2.843c1.94-0.725,3.806-1.597,5.329-3.054c0.728-0.695,1.334-1.51,1.351-2.537 c0.05-3.044,0.057-6.091-0.011-9.135c-0.009-0.416-0.46-1.004-0.855-1.18c-0.4-0.178-1.15-0.132-1.46,0.142 c-1.689,1.493-3.713,2.292-5.792,2.979c-5.952,1.967-12.099,2.732-18.339,2.831c-6.629,0.105-13.235-0.16-19.725-1.672 c-3.346-0.779-6.604-1.797-9.287-4.104c-0.48-0.413-1.057-0.472-1.627-0.196c-0.572,0.276-0.837,0.758-0.835,1.404 c0.008,2.516,0.101,5.038-0.023,7.549C20.894,42.002,21.956,43.51,23.761,44.692z" fill="#689cc5" style="fill: rgb(104, 156, 197);"></path></g><metadata xmlns:d="https://loading.io/stock/" class="ld ld-breath" style="transform-origin: 50px 50px 0px; animation-duration: 1s; animation-delay: -0.75s; animation-direction: normal;">
<d:name class="ld ld-breath" style="transform-origin: 50px 50px 0px; animation-duration: 1s; animation-delay: -0.666667s; animation-direction: normal;">data</d:name>
<d:tags class="ld ld-breath" style="transform-origin: 50px 50px 0px; animation-duration: 1s; animation-delay: -0.583333s; animation-direction: normal;">hard disk,drive,media,storage,data,map</d:tags>
<d:license class="ld ld-breath" style="transform-origin: 50px 50px 0px; animation-duration: 1s; animation-delay: -0.5s; animation-direction: normal;">cc0</d:license>
<d:slug class="ld ld-breath" style="transform-origin: 50px 50px 0px; animation-duration: 1s; animation-delay: -0.416667s; animation-direction: normal;">90j9ln</d:slug>
</metadata></g></g></g></g><style type="text/css" class="ld ld-breath" style="transform-origin: 50px 50px 0px; animation-duration: 1s; animation-delay: -0.333333s; animation-direction: normal;">@keyframes ld-breath {
  0% {
    -webkit-transform: scale(0.86);
    transform: scale(0.86);
  }
  50% {
    -webkit-transform: scale(1.06);
    transform: scale(1.06);
  }
  100% {
    -webkit-transform: scale(0.86);
    transform: scale(0.86);
  }
}
@-webkit-keyframes ld-breath {
  0% {
    -webkit-transform: scale(0.86);
    transform: scale(0.86);
  }
  50% {
    -webkit-transform: scale(1.06);
    transform: scale(1.06);
  }
  100% {
    -webkit-transform: scale(0.86);
    transform: scale(0.86);
  }
}
.ld.ld-breath {
  -webkit-animation: ld-breath 1s infinite;
  animation: ld-breath 1s infinite;
}
</style></svg></svg>