<svg class="ldi-tdjacw" width="200px"  height="200px"  xmlns="http://www.w3.org/2000/svg" xmlns:xlink="http://www.w3.org/1999/xlink" viewBox="0 0 100 100" preserveAspectRatio="xMidYMid" style="background: none;"><!--?xml version="1.0" encoding="utf-8"?--><!--Generator: Adobe Illustrator 21.0.0, SVG Export Plug-In . SVG Version: 6.00 Build 0)--><svg version="1.1" id="圖層_1" xmlns="http://www.w3.org/2000/svg" xmlns:xlink="http://www.w3.org/1999/xlink" x="0px" y="0px" viewBox="0 0 100 100" style="transform-origin: 50px 50px 0px;" xml:space="preserve"><g style="transform-origin: 50px 50px 0px;"><g style="transform-origin: 50px 50px 0px; transform: scale(1);"><g style="transform-origin: 50px 50px 0px;"><g><style type="text/css" class="ld ld-breath" style="transform-origin: 50px 50px 0px; animation-duration: 1s; animation-delay: -1s; animation-direction: normal;">.st0{fill:#F5E6C8;} .st1{fill:#F47E60;} .st2{fill:#C33737;} .st3{fill:#E0E0E0;} .st4{fill:#333333;} .st5{fill:#77A4BD;} .st6{fill:#A0C8D7;} .st7{fill:#666666;} .st8{fill:none;stroke:#E0E0E0;stroke-width:6;stroke-miterlimit:10;stroke-dasharray:5,5;} .st9{fill:#A0C8D7;stroke:#333333;stroke-width:2.6608;stroke-linejoin:round;stroke-miterlimit:10;} .st10{fill:#77A4BD;stroke:#333333;stroke-width:2.6608;stroke-linejoin:round;stroke-miterlimit:10;} .st11{fill:#E0E0E0;stroke:#333333;stroke-width:2.6608;stroke-linejoin:round;stroke-miterlimit:10;} .st12{fill:#666666;stroke:#333333;stroke-width:2.6608;stroke-linejoin:round;stroke-miterlimit:10;} .st13{fill:#E15B64;stroke:#000000;stroke-width:2.8604;stroke-miterlimit:10;} .st14{fill:none;stroke:#000000;stroke-width:7.2297;stroke-miterlimit:10;} .st15{fill:none;stroke:#333333;stroke-width:5;stroke-linecap:round;stroke-miterlimit:10;} .st16{fill:#F8B26A;stroke:#333333;stroke-width:3;stroke-miterlimit:10;} .st17{fill:#F5E6C8;stroke:#000000;stroke-width:3;stroke-linejoin:round;stroke-miterlimit:10;} .st18{fill:#F5E6C8;stroke:#000000;stroke-width:3;stroke-miterlimit:10;} .st19{fill:#FFFFFF;stroke:#000000;stroke-width:6;stroke-miterlimit:10;} .st20{fill:#666666;stroke:#333333;stroke-width:2.8414;} .st21{fill:#EEF4DC;stroke:#333333;stroke-width:4;} .st22{fill:#FFFFFF;stroke:#000000;stroke-width:5;stroke-miterlimit:10;} .st23{fill:#32AAB4;stroke:#000000;stroke-width:5;stroke-miterlimit:10;} .st24{fill:none;stroke:#FFFFFF;stroke-width:4;stroke-linecap:round;stroke-linejoin:round;} .st25{fill:#FFFFFF;} .st26{fill:#F8EAEC;stroke:#FFFFFF;} .st27{fill:#FFFFFF;stroke:#221E1F;stroke-width:8;stroke-miterlimit:10;} .st28{fill:#221E1F;} .st29{fill:#E90C59;stroke:#333333;stroke-width:4;} .st30{fill:#FE718D;stroke:#333333;stroke-width:4;} .st31{fill:#46DFF0;} .st32{fill:#03AFF3;stroke:#46DFF0;stroke-width:5;stroke-linecap:round;} .st33{fill:#EEF4DC;} .st34{fill:#E90C59;stroke:#E90C59;stroke-width:2;} .st35{fill:#FE718D;stroke:#FE718D;stroke-width:2;} .st36{fill:none;stroke:#46DFF0;stroke-width:5;stroke-linecap:round;} .st37{fill:#EBA523;stroke:#333333;stroke-width:4;stroke-linecap:round;stroke-linejoin:round;} .st38{fill:#E0E0E0;stroke:#333333;stroke-width:4;stroke-linecap:round;} .st39{fill:#F5E6C8;stroke:#333333;stroke-width:4;stroke-linecap:round;stroke-linejoin:round;} .st40{fill:#333333;stroke:#333333;stroke-width:4;stroke-linecap:round;stroke-linejoin:round;} .st41{fill:none;stroke:#333333;stroke-width:4;stroke-linecap:round;stroke-linejoin:round;} .st42{fill:#E0E0E0;stroke:#333333;stroke-width:3.0801;stroke-linecap:round;} .st43{fill:#EBA523;stroke:#333333;stroke-width:2.6855;stroke-linecap:round;stroke-linejoin:round;} .st44{fill:#E0E0E0;stroke:#333333;stroke-width:2.6855;stroke-linecap:round;} .st45{fill:#F5E6C8;stroke:#333333;stroke-width:2.6855;stroke-linecap:round;stroke-linejoin:round;} .st46{fill:#333333;stroke:#333333;stroke-width:2.6855;stroke-linecap:round;stroke-linejoin:round;} .st47{fill:none;stroke:#333333;stroke-width:2.6855;stroke-linecap:round;stroke-linejoin:round;} .st48{fill:#E0E0E0;stroke:#333333;stroke-width:3.3468;stroke-linecap:round;} .st49{fill:#666666;stroke:#333333;stroke-width:2.672;} .st50{fill:#E0E0E0;stroke:#333333;stroke-width:3.9;stroke-linecap:round;} .st51{fill:#666666;stroke:#333333;stroke-width:2.621;} .st52{fill:#333333;stroke:#333333;stroke-width:3.0406;} .st53{fill:#E0E0E0;stroke:#333333;stroke-width:2.8414;} .st54{fill:none;stroke:#333333;stroke-width:2.9737;} .st55{fill:#1BD112;} .st56{fill:none;} .st57{fill:#666666;stroke:#000000;stroke-width:3;stroke-miterlimit:10;} .st58{fill:#333333;stroke:#000000;stroke-width:3;stroke-miterlimit:10;} .st59{fill:#77A4BD;stroke:#333333;stroke-width:5;} .st60{fill:none;stroke:#000000;stroke-width:2.552;stroke-miterlimit:10;} .st61{fill:#4D4D4D;} .st62{fill:#E15B64;stroke:#000000;stroke-width:3;stroke-miterlimit:10;} .st63{fill:#F5E169;stroke:#000000;stroke-width:3;stroke-miterlimit:10;} .st64{fill:#ABBD81;} .st65{fill:#494B32;} .st66{fill:#A0C8D7;stroke:#000000;stroke-width:3;stroke-miterlimit:10;} .st67{fill:#77A4BD;stroke:#000000;stroke-width:3;stroke-miterlimit:10;} .st68{fill:#F47E60;stroke:#000000;stroke-width:3;stroke-miterlimit:10;} .st69{fill:#E0E0E0;stroke:#000000;stroke-width:3;stroke-linejoin:round;stroke-miterlimit:10;} .st70{fill:#666666;stroke:#000000;stroke-width:3;stroke-linejoin:round;stroke-miterlimit:10;} .st71{fill:#66503A;stroke:#000000;stroke-width:3;stroke-linejoin:round;stroke-miterlimit:10;} .st72{fill:#E0E0E0;stroke:#333333;stroke-width:3;stroke-miterlimit:10;} .st73{fill:#666666;stroke:#333333;stroke-width:3;stroke-miterlimit:10;} .st74{fill:#FFFFFF;stroke:#333333;stroke-width:3;stroke-miterlimit:10;} .st75{fill:none;stroke:#333333;stroke-width:3;stroke-miterlimit:10;} .st76{fill:#F5E6C8;stroke:#333333;stroke-width:3;stroke-miterlimit:10;} .st77{fill:#849B87;stroke:#000000;stroke-width:3;stroke-miterlimit:10;} .st78{fill:#F8B26A;stroke:#000000;stroke-width:3;stroke-miterlimit:10;} .st79{fill:#E15B64;} .st80{fill:#F5E6C8;stroke:#333333;stroke-width:8;stroke-miterlimit:10;} .st81{stroke:#000000;stroke-width:8;stroke-miterlimit:10;} .st82{fill:#666666;stroke:#333333;stroke-width:5;stroke-miterlimit:10;} .st83{fill:#E0E0E0;stroke:#333333;stroke-width:5;stroke-miterlimit:10;} .st84{fill:#E0E0E0;stroke:#000000;stroke-width:5.7838;stroke-miterlimit:10;} .st85{fill:#F47E60;stroke:#000000;stroke-width:5.7838;stroke-miterlimit:10;} .st86{fill:#F5E6C8;stroke:#000000;stroke-width:5.6519;stroke-miterlimit:10;} .st87{fill:none;stroke:#333333;stroke-width:5;stroke-miterlimit:10;} .st88{fill:#E0E0E0;stroke:#333333;stroke-width:4;stroke-miterlimit:10;} .st89{fill:#F47E60;stroke:#333333;stroke-width:4;stroke-miterlimit:10;} .st90{fill:#F5E6C8;stroke:#333333;stroke-width:4.0258;stroke-miterlimit:10;} .st91{fill:#66503A;stroke:#333333;stroke-width:4.0258;stroke-miterlimit:10;} .st92{fill:none;stroke:#333333;stroke-width:3.7219;stroke-miterlimit:10;} .st93{fill:none;stroke:#333333;stroke-width:4.881;stroke-miterlimit:10;} .st94{fill:#E15B64;stroke:#333333;stroke-width:4.6426;stroke-miterlimit:10;} .st95{fill:#F47E60;stroke:#333333;stroke-width:4.6426;stroke-miterlimit:10;} .st96{fill:#F8B26A;stroke:#333333;stroke-width:4.6426;stroke-miterlimit:10;} .st97{fill:#849B87;} .st98{fill:#F8B26A;} .st99{fill:#C33737;stroke:#000000;stroke-width:2.8604;stroke-miterlimit:10;} .st100{fill:#C33737;stroke:#000000;stroke-width:2.3193;stroke-miterlimit:10;} .st101{fill:#53BBEA;} .st102{fill:#DA5548;} .st103{fill:#F9CF5A;} .st104{fill:#67A648;} .st105{fill:#3790CE;} .st106{fill:#B93626;} .st107{fill:#8FD5E0;} .st108{fill:#E0782B;} .st109{fill:#5B9CC6;} .st110{fill:#871B19;} .st111{fill:#ED483B;} .st112{fill:#CACACA;} .st113{fill:#4B84C4;} .st114{fill:#C23D2B;} .st115{fill:#EBEBEB;} .st116{fill:#FFFFFF;stroke:#333333;stroke-width:2.5574;stroke-linejoin:round;stroke-miterlimit:10;} .st117{fill:#A3A3A3;} .st118{fill:none;stroke:#666666;stroke-width:8;stroke-miterlimit:10;} .st119{fill:none;stroke:#333333;stroke-width:8;stroke-miterlimit:10;} .st120{fill:none;stroke:#C33737;stroke-width:5.1949;stroke-miterlimit:10;} .st121{fill:#FFDC6C;} .st122{fill:#F5E169;} .st123{fill:none;stroke:#F5E169;stroke-miterlimit:10;} .st124{fill:#8A8A8A;} .st125{fill:#999999;} .st126{fill:#4A3827;} .st127{fill:#66503A;} .st128{fill:#C69C6D;} .st129{fill:#E0E0E0;stroke:#000000;stroke-width:3.7234;stroke-miterlimit:10;} .st130{fill:none;stroke:#000000;stroke-width:4;stroke-linecap:round;stroke-miterlimit:10;} .st131{fill:#E0E0E0;stroke:#333333;stroke-width:3.7234;stroke-miterlimit:10;} .st132{fill:none;stroke:#333333;stroke-width:4;stroke-linecap:round;stroke-miterlimit:10;} .st133{fill:#983733;} .st134{fill:#AAAAAA;}</style><g class="ld ld-breath" style="transform-origin: 50px 50px 0px; animation-duration: 1s; animation-delay: -0.928571s; animation-direction: normal;"><path class="st28" d="M14.3,70v6c0,6.6,14.6,14,35.6,14c21,0,35.7-7.4,35.7-14v-6c-6.9,5.8-20.1,9.7-35.7,9.7 C34.5,79.7,21.3,75.8,14.3,70z" fill="#93dbe9" style="fill: rgb(147, 219, 233);"></path></g><g class="ld ld-breath" style="transform-origin: 50px 50px 0px; animation-duration: 1s; animation-delay: -0.857143s; animation-direction: normal;"><path class="st28" d="M78.6,58.9c-1,0.5-2.1,0.9-3.3,1.3c-6.9,2.5-15.7,4-25.4,4c-9.7,0-18.4-1.5-25.4-4c-1.1-0.4-2.2-0.9-3.3-1.3 c-1-0.4-1.9-0.9-2.7-1.4c-1.6-0.9-3-1.9-4.3-2.9v5.8v0.2c0,0.8,0.2,1.7,0.7,2.6c0.4,0.7,0.9,1.4,1.6,2.1c4.9,5,17.2,9.4,33.4,9.4 c16.1,0,28.5-4.3,33.4-9.4c0.7-0.7,1.2-1.4,1.6-2.1c0.5-0.9,0.7-1.7,0.7-2.6v-0.2v-5.8c-1.2,1-2.7,2-4.3,2.9 C80.5,58,79.6,58.4,78.6,58.9z" fill="#93dbe9" style="fill: rgb(147, 219, 233);"></path></g><g class="ld ld-breath" style="transform-origin: 50px 50px 0px; animation-duration: 1s; animation-delay: -0.785714s; animation-direction: normal;"><path class="st28" d="M79.2,43.7c-1,0.5-2.1,0.9-3.2,1.4c-7,2.7-16,4.3-26,4.3c-10,0-19-1.6-26-4.3c-1.1-0.4-2.2-0.9-3.2-1.4 c-0.9-0.4-1.8-0.9-2.7-1.4c-1.4-0.8-2.7-1.7-3.8-2.7v5.3v0.2c0,0.8,0.2,1.7,0.7,2.6c0.4,0.7,0.9,1.4,1.6,2.1c1.8,1.8,4.5,3.5,8,5 c1.2,0.5,2.5,1,3.9,1.4c1.6,0.5,3.3,1,5.2,1.3c4.8,1,10.3,1.6,16.3,1.6c6,0,11.5-0.6,16.3-1.6c1.8-0.4,3.5-0.8,5.2-1.3 c1.4-0.4,2.7-0.9,3.9-1.4c3.5-1.5,6.3-3.2,8-5c0.7-0.7,1.2-1.4,1.6-2.1c0.5-0.9,0.7-1.7,0.7-2.6v-0.2v-5.3c-1.1,0.9-2.4,1.8-3.8,2.7 C81,42.8,80.1,43.2,79.2,43.7z" fill="#93dbe9" style="fill: rgb(147, 219, 233);"></path></g><g class="ld ld-breath" style="transform-origin: 50px 50px 0px; animation-duration: 1s; animation-delay: -0.714286s; animation-direction: normal;"><path class="st28" d="M50,10c-21,0-35.6,7.4-35.6,14v5.5v0.7c0,0.7,0.2,1.5,0.5,2.2c0.3,0.7,0.8,1.5,1.5,2.2c1.6,1.8,4.2,3.5,7.6,5 c1.1,0.5,2.4,1,3.7,1.4c1.5,0.5,3.1,1,4.8,1.4c5.1,1.2,11,1.9,17.5,1.9c6.5,0,12.4-0.7,17.5-1.9c1.7-0.4,3.3-0.9,4.8-1.4 c1.3-0.4,2.6-0.9,3.7-1.4c3.4-1.5,6-3.2,7.6-5c0.7-0.7,1.2-1.4,1.5-2.2c0.3-0.7,0.5-1.5,0.5-2.2v-0.7V24C85.7,17.4,71,10,50,10z" fill="#93dbe9" style="fill: rgb(147, 219, 233);"></path></g><metadata xmlns:d="https://loading.io/stock/" class="ld ld-breath" style="transform-origin: 50px 50px 0px; animation-duration: 1s; animation-delay: -0.642857s; animation-direction: normal;">
<d:name class="ld ld-breath" style="transform-origin: 50px 50px 0px; animation-duration: 1s; animation-delay: -0.571429s; animation-direction: normal;">database</d:name>
<d:tags class="ld ld-breath" style="transform-origin: 50px 50px 0px; animation-duration: 1s; animation-delay: -0.5s; animation-direction: normal;">harddisk,storage,nas,depot,repository,data center,database,web application</d:tags>
<d:license class="ld ld-breath" style="transform-origin: 50px 50px 0px; animation-duration: 1s; animation-delay: -0.428571s; animation-direction: normal;">cc-by</d:license>
<d:slug class="ld ld-breath" style="transform-origin: 50px 50px 0px; animation-duration: 1s; animation-delay: -0.357143s; animation-direction: normal;">tdjacw</d:slug>
</metadata></g></g></g></g><style type="text/css" class="ld ld-breath" style="transform-origin: 50px 50px 0px; animation-duration: 1s; animation-delay: -0.285714s; animation-direction: normal;">@keyframes ld-breath {
  0% {
    -webkit-transform: scale(0.86);
    transform: scale(0.86);
  }
  50% {
    -webkit-transform: scale(1.06);
    transform: scale(1.06);
  }
  100% {
    -webkit-transform: scale(0.86);
    transform: scale(0.86);
  }
}
@-webkit-keyframes ld-breath {
  0% {
    -webkit-transform: scale(0.86);
    transform: scale(0.86);
  }
  50% {
    -webkit-transform: scale(1.06);
    transform: scale(1.06);
  }
  100% {
    -webkit-transform: scale(0.86);
    transform: scale(0.86);
  }
}
.ld.ld-breath {
  -webkit-animation: ld-breath 1s infinite;
  animation: ld-breath 1s infinite;
}
</style></svg></svg>